<?xml version="1.0" encoding="UTF-8"?>
<!DOCTYPE svg PUBLIC "-//W3C//DTD SVG 1.1//EN" "http://www.w3.org/Graphics/SVG/1.1/DTD/svg11.dtd">
<svg xmlns="http://www.w3.org/2000/svg" version="1.1" width="475px" height="162px" style="shape-rendering:geometricPrecision; text-rendering:geometricPrecision; image-rendering:optimizeQuality; fill-rule:evenodd; clip-rule:evenodd" xmlns:xlink="http://www.w3.org/1999/xlink">
<g><path style="opacity:1" fill="#fefdfd" d="M -0.5,-0.5 C 157.833,-0.5 316.167,-0.5 474.5,-0.5C 474.5,53.5 474.5,107.5 474.5,161.5C 316.167,161.5 157.833,161.5 -0.5,161.5C -0.5,107.5 -0.5,53.5 -0.5,-0.5 Z"/></g>
<g><path style="opacity:1" fill="#bd6a69" d="M 264.5,21.5 C 251.939,16.2296 239.273,10.2296 226.5,3.5C 217.792,18.9194 210.125,34.9194 203.5,51.5C 201.774,53.9422 200.274,56.6089 199,59.5C 198.536,58.9056 198.369,58.2389 198.5,57.5C 198.5,56.8333 198.5,56.1667 198.5,55.5C 201.119,52.2662 202.619,48.5995 203,44.5C 201.643,47.8981 199.81,50.8981 197.5,53.5C 197.833,52.1667 198.167,50.8333 198.5,49.5C 200.293,47.5739 201.293,45.2406 201.5,42.5C 203.625,39.9122 204.958,36.9122 205.5,33.5C 207.625,30.9122 208.958,27.9122 209.5,24.5C 210.737,23.0351 211.737,21.3684 212.5,19.5C 213.323,16.5198 214.657,13.8531 216.5,11.5C 217.043,11.56 217.376,11.8933 217.5,12.5C 213.667,20.8333 209.833,29.1667 206,37.5C 205.333,38.5 205.333,39.5 206,40.5C 211.181,29.4738 216.347,18.4738 221.5,7.5C 221.725,3.44895 223.725,1.61562 227.5,2C 239.8,8.4844 252.134,14.9844 264.5,21.5 Z"/></g>
<g><path style="opacity:1" fill="#e8b6b6" d="M 212.5,19.5 C 211.737,21.3684 210.737,23.0351 209.5,24.5C 209.737,23.209 209.404,22.209 208.5,21.5C 209.345,19.2381 210.678,18.5714 212.5,19.5 Z"/></g>
<g><path style="opacity:1" fill="#bc6160" d="M 265.5,24.5 C 266.167,25.5 266.833,26.5 267.5,27.5C 254.908,22.1399 242.574,16.3066 230.5,10C 229.167,9.33333 227.833,9.33333 226.5,10C 217.795,27.9105 208.961,45.7439 200,63.5C 199.833,63 199.667,62.5 199.5,62C 201.27,58.6338 202.603,55.1338 203.5,51.5C 211.533,36.4357 219.2,21.1024 226.5,5.5C 239.404,12.1191 252.404,18.4524 265.5,24.5 Z"/></g>
<g><path style="opacity:1" fill="#fbc8c8" d="M 221.5,7.5 C 216.347,18.4738 211.181,29.4738 206,40.5C 205.333,39.5 205.333,38.5 206,37.5C 209.833,29.1667 213.667,20.8333 217.5,12.5C 217.376,11.8933 217.043,11.56 216.5,11.5C 216.989,8.67598 218.656,7.34265 221.5,7.5 Z"/></g>
<g><path style="opacity:1" fill="#bd5c5b" d="M 269.5,34.5 C 270.5,34.8333 271.167,35.5 271.5,36.5C 271.44,37.0431 271.107,37.3764 270.5,37.5C 257.167,31.8333 243.833,26.1667 230.5,20.5C 220.333,40.5117 209.999,60.1784 199.5,79.5C 199.5,78.1667 199.5,76.8333 199.5,75.5C 209.396,56.0423 219.563,36.709 230,17.5C 243.104,23.3018 256.271,28.9685 269.5,34.5 Z"/></g>
<g><path style="opacity:1" fill="#fddada" d="M 271.5,36.5 C 272.404,37.209 272.737,38.209 272.5,39.5C 258.258,34.2108 243.924,29.2108 229.5,24.5C 219.801,44.5618 210.135,64.5618 200.5,84.5C 199.549,83.0813 199.216,81.4147 199.5,79.5C 209.999,60.1784 220.333,40.5117 230.5,20.5C 243.833,26.1667 257.167,31.8333 270.5,37.5C 271.107,37.3764 271.44,37.0431 271.5,36.5 Z"/></g>
<g><path style="opacity:1" fill="#fdc7c7" d="M 209.5,24.5 C 208.958,27.9122 207.625,30.9122 205.5,33.5C 206.042,30.0878 207.375,27.0878 209.5,24.5 Z"/></g>
<g><path style="opacity:1" fill="#fde5e4" d="M 276.5,47.5 C 277.434,48.5676 277.768,49.901 277.5,51.5C 263.357,47.467 249.357,43.1336 235.5,38.5C 234.833,38.8333 234.167,39.1667 233.5,39.5C 227.04,50.9197 220.706,62.4197 214.5,74C 229.31,76.4302 244.31,77.9302 259.5,78.5C 257.361,79.1581 255.361,80.1581 253.5,81.5C 248.384,80.1937 243.051,79.527 237.5,79.5C 228.299,79.5337 219.299,78.8671 210.5,77.5C 217.745,62.6699 225.745,48.3365 234.5,34.5C 248.409,40.1433 262.409,44.4766 276.5,47.5 Z"/></g>
<g><path style="opacity:1" fill="#e5a9a8" d="M 205.5,28.5 C 203.072,34.352 200.406,40.0187 197.5,45.5C 196.532,42.5547 196.366,39.5547 197,36.5C 199.564,33.7198 201.897,30.7198 204,27.5C 204.383,28.056 204.883,28.3893 205.5,28.5 Z"/></g>
<g><path style="opacity:1" fill="#f9bdbd" d="M 205.5,33.5 C 204.958,36.9122 203.625,39.9122 201.5,42.5C 202.042,39.0878 203.375,36.0878 205.5,33.5 Z"/></g>
<g><path style="opacity:1" fill="#fdcfcf" d="M 264.5,21.5 C 265.404,22.209 265.737,23.209 265.5,24.5C 252.404,18.4524 239.404,12.1191 226.5,5.5C 219.2,21.1024 211.533,36.4357 203.5,51.5C 210.125,34.9194 217.792,18.9194 226.5,3.5C 239.273,10.2296 251.939,16.2296 264.5,21.5 Z"/></g>
<g><path style="opacity:1" fill="#fcd3d3" d="M 268.5,30.5 C 269.434,31.5676 269.768,32.901 269.5,34.5C 256.271,28.9685 243.104,23.3018 230,17.5C 219.563,36.709 209.396,56.0423 199.5,75.5C 198.709,73.3093 198.709,71.3093 199.5,69.5C 199.369,70.2389 199.536,70.9056 200,71.5C 209.442,52.2816 219.108,33.2816 229,14.5C 241.092,20.1287 253.259,25.6287 265.5,31C 266.749,31.7401 267.749,31.5735 268.5,30.5 Z"/></g>
<g><path style="opacity:1" fill="#bf7070" d="M 208.5,21.5 C 209.404,22.209 209.737,23.209 209.5,24.5C 207.375,27.0878 206.042,30.0878 205.5,33.5C 203.375,36.0878 202.042,39.0878 201.5,42.5C 199.992,44.1815 198.992,46.1815 198.5,48.5C 197.596,47.791 197.263,46.791 197.5,45.5C 200.406,40.0187 203.072,34.352 205.5,28.5C 206.227,26.0462 207.227,23.7128 208.5,21.5 Z"/></g>
<g><path style="opacity:1" fill="#bb5f5f" d="M 267.5,29.5 C 268.167,29.5 268.5,29.8333 268.5,30.5C 267.749,31.5735 266.749,31.7401 265.5,31C 253.259,25.6287 241.092,20.1287 229,14.5C 219.108,33.2816 209.442,52.2816 200,71.5C 199.536,70.9056 199.369,70.2389 199.5,69.5C 199.557,68.391 199.89,67.391 200.5,66.5C 209.597,48.4712 218.597,30.3045 227.5,12C 240.865,17.5098 254.198,23.3432 267.5,29.5 Z"/></g>
<g><path style="opacity:1" fill="#bd5c5b" d="M 272.5,39.5 C 272.833,40.1667 273.167,40.8333 273.5,41.5C 273.265,42.0967 272.765,42.4301 272,42.5C 258.872,37.4018 245.706,32.4018 232.5,27.5C 231.914,27.7093 231.414,28.0426 231,28.5C 221.755,46.6581 212.255,64.6581 202.5,82.5C 216.655,83.5037 230.655,84.5037 244.5,85.5C 229.657,85.8293 214.99,85.496 200.5,84.5C 210.135,64.5618 219.801,44.5618 229.5,24.5C 243.924,29.2108 258.258,34.2108 272.5,39.5 Z"/></g>
<g><path style="opacity:1" fill="#fddddd" d="M 273.5,41.5 C 274.043,41.56 274.376,41.8933 274.5,42.5C 273.757,43.1818 273.091,43.8485 272.5,44.5C 260.425,40.6333 248.425,36.4667 236.5,32C 234.741,31.2025 233.074,31.3691 231.5,32.5C 222.897,48.0396 214.564,63.7063 206.5,79.5C 206.709,80.086 207.043,80.586 207.5,81C 210.817,81.4983 214.15,81.665 217.5,81.5C 222.833,81.5 228.167,81.5 233.5,81.5C 238.975,82.4889 244.642,82.8222 250.5,82.5C 248.361,83.1581 246.361,84.1581 244.5,85.5C 230.655,84.5037 216.655,83.5037 202.5,82.5C 212.255,64.6581 221.755,46.6581 231,28.5C 231.414,28.0426 231.914,27.7093 232.5,27.5C 245.706,32.4018 258.872,37.4018 272,42.5C 272.765,42.4301 273.265,42.0967 273.5,41.5 Z"/></g>
<g><path style="opacity:1" fill="#c15857" d="M 272.5,44.5 C 274.076,45.1429 275.41,46.1429 276.5,47.5C 262.409,44.4766 248.409,40.1433 234.5,34.5C 225.745,48.3365 217.745,62.6699 210.5,77.5C 208.952,77.8212 208.285,78.8212 208.5,80.5C 211.713,80.19 214.713,80.5233 217.5,81.5C 214.15,81.665 210.817,81.4983 207.5,81C 207.043,80.586 206.709,80.086 206.5,79.5C 214.564,63.7063 222.897,48.0396 231.5,32.5C 233.074,31.3691 234.741,31.2025 236.5,32C 248.425,36.4667 260.425,40.6333 272.5,44.5 Z"/></g>
<g><path style="opacity:1" fill="#fabdbd" d="M 201.5,42.5 C 201.293,45.2406 200.293,47.5739 198.5,49.5C 198.5,49.1667 198.5,48.8333 198.5,48.5C 198.992,46.1815 199.992,44.1815 201.5,42.5 Z"/></g>
<g><path style="opacity:1" fill="#fcd2d2" d="M 267.5,27.5 C 267.5,28.1667 267.5,28.8333 267.5,29.5C 254.198,23.3432 240.865,17.5098 227.5,12C 218.597,30.3045 209.597,48.4712 200.5,66.5C 199.791,65.596 198.791,65.2627 197.5,65.5C 197.194,62.6146 197.527,59.9479 198.5,57.5C 198.369,58.2389 198.536,58.9056 199,59.5C 200.274,56.6089 201.774,53.9422 203.5,51.5C 202.603,55.1338 201.27,58.6338 199.5,62C 199.667,62.5 199.833,63 200,63.5C 208.961,45.7439 217.795,27.9105 226.5,10C 227.833,9.33333 229.167,9.33333 230.5,10C 242.574,16.3066 254.908,22.1399 267.5,27.5 Z"/></g>
<g><path style="opacity:1" fill="#fcc6c6" d="M 198.5,55.5 C 198.167,54.8333 197.833,54.1667 197.5,53.5C 199.81,50.8981 201.643,47.8981 203,44.5C 202.619,48.5995 201.119,52.2662 198.5,55.5 Z"/></g>
<g><path style="opacity:1" fill="#c44f4d" d="M 279.5,57.5 C 280.5,57.8333 281.167,58.5 281.5,59.5C 281.083,60.1239 280.416,60.4573 279.5,60.5C 265.822,57.2748 252.155,53.9415 238.5,50.5C 235.731,52.9453 233.731,55.9453 232.5,59.5C 231.326,60.5137 230.66,61.847 230.5,63.5C 229.778,63.0825 229.278,62.4158 229,61.5C 228.617,62.056 228.117,62.3893 227.5,62.5C 229.406,58.0778 231.572,53.7444 234,49.5C 234.777,47.7852 236.11,46.7852 238,46.5C 251.796,50.2647 265.63,53.9313 279.5,57.5 Z"/></g>
<g><path style="opacity:1" fill="#c85f5b" d="M 251.5,57.5 C 247.139,56.5766 242.806,56.5766 238.5,57.5C 241.442,58.9375 244.442,60.2708 247.5,61.5C 243.454,61.0479 239.454,60.3813 235.5,59.5C 236.126,57.2369 237.46,55.5703 239.5,54.5C 243.732,55.0841 247.732,56.0841 251.5,57.5 Z"/></g>
<g><path style="opacity:1" fill="#cc4442" d="M 251.5,57.5 C 258.125,59.0416 264.792,60.375 271.5,61.5C 271.5,62.5 271.5,63.5 271.5,64.5C 267.19,63.9198 262.857,63.5865 258.5,63.5C 254.709,63.3413 251.042,62.6746 247.5,61.5C 244.442,60.2708 241.442,58.9375 238.5,57.5C 242.806,56.5766 247.139,56.5766 251.5,57.5 Z"/></g>
<g><path style="opacity:1" fill="#fde9e9" d="M 281.5,59.5 C 282.692,60.5659 282.359,61.3992 280.5,62C 281.416,62.2784 282.082,62.7784 282.5,63.5C 278.738,63.3089 275.071,62.6422 271.5,61.5C 264.792,60.375 258.125,59.0416 251.5,57.5C 247.732,56.0841 243.732,55.0841 239.5,54.5C 237.46,55.5703 236.126,57.2369 235.5,59.5C 234.5,58.1667 233.5,58.1667 232.5,59.5C 233.731,55.9453 235.731,52.9453 238.5,50.5C 252.155,53.9415 265.822,57.2748 279.5,60.5C 280.416,60.4573 281.083,60.1239 281.5,59.5 Z"/></g>
<g><path style="opacity:1" fill="#c7504e" d="M 271.5,61.5 C 275.071,62.6422 278.738,63.3089 282.5,63.5C 283.784,66.8906 282.451,68.2239 278.5,67.5C 271.647,66.4331 264.981,65.0998 258.5,63.5C 262.857,63.5865 267.19,63.9198 271.5,64.5C 271.5,63.5 271.5,62.5 271.5,61.5 Z"/></g>
<g><path style="opacity:1" fill="#ce413f" d="M 230.5,63.5 C 234.816,64.5924 239.149,65.5924 243.5,66.5C 243.611,67.1174 243.944,67.6174 244.5,68C 239.483,68.5898 234.483,68.4231 229.5,67.5C 227.667,67.4146 226.334,66.7479 225.5,65.5C 225.427,63.9731 226.094,62.9731 227.5,62.5C 228.117,62.3893 228.617,62.056 229,61.5C 229.278,62.4158 229.778,63.0825 230.5,63.5 Z"/></g>
<g><path style="opacity:1" fill="#c6514f" d="M 225.5,65.5 C 226.334,66.7479 227.667,67.4146 229.5,67.5C 234.483,68.4231 239.483,68.5898 244.5,68C 243.944,67.6174 243.611,67.1174 243.5,66.5C 253.597,67.5543 263.597,69.0543 273.5,71C 272.429,71.8518 271.429,72.6851 270.5,73.5C 255.165,71.9542 239.832,70.2875 224.5,68.5C 224.263,67.209 224.596,66.209 225.5,65.5 Z"/></g>
<g><path style="opacity:1" fill="#feeaea" d="M 277.5,51.5 C 280.133,52.8111 280.133,54.3111 277.5,56C 278.416,56.2784 279.082,56.7784 279.5,57.5C 265.63,53.9313 251.796,50.2647 238,46.5C 236.11,46.7852 234.777,47.7852 234,49.5C 231.572,53.7444 229.406,58.0778 227.5,62.5C 226.094,62.9731 225.427,63.9731 225.5,65.5C 224.596,66.209 224.263,67.209 224.5,68.5C 239.832,70.2875 255.165,71.9542 270.5,73.5C 268.031,74.3171 265.365,74.8171 262.5,75C 263.566,76.159 263.233,76.9924 261.5,77.5C 260.486,76.2353 258.986,75.5687 257,75.5C 244.404,74.3247 231.904,72.6581 219.5,70.5C 224.191,60.4289 229.858,51.0956 236.5,42.5C 250.045,46.4046 263.545,50.4046 277,54.5C 278.683,53.8235 278.85,52.8235 277.5,51.5 Z"/></g>
<g><path style="opacity:1" fill="#c4514f" d="M 277.5,51.5 C 278.85,52.8235 278.683,53.8235 277,54.5C 263.545,50.4046 250.045,46.4046 236.5,42.5C 229.858,51.0956 224.191,60.4289 219.5,70.5C 231.904,72.6581 244.404,74.3247 257,75.5C 258.986,75.5687 260.486,76.2353 261.5,77.5C 260.508,77.3284 259.842,77.6618 259.5,78.5C 244.31,77.9302 229.31,76.4302 214.5,74C 220.706,62.4197 227.04,50.9197 233.5,39.5C 234.167,39.1667 234.833,38.8333 235.5,38.5C 249.357,43.1336 263.357,47.467 277.5,51.5 Z"/></g>
<g><path style="opacity:1" fill="#bd4646" d="M 210.5,77.5 C 219.299,78.8671 228.299,79.5337 237.5,79.5C 238.952,80.3019 240.618,80.8019 242.5,81C 239.518,81.498 236.518,81.6646 233.5,81.5C 228.167,81.5 222.833,81.5 217.5,81.5C 214.713,80.5233 211.713,80.19 208.5,80.5C 208.285,78.8212 208.952,77.8212 210.5,77.5 Z"/></g>
<g><path style="opacity:1" fill="#b95e5c" d="M 237.5,79.5 C 243.051,79.527 248.384,80.1937 253.5,81.5C 252.391,81.5569 251.391,81.8902 250.5,82.5C 244.642,82.8222 238.975,82.4889 233.5,81.5C 236.518,81.6646 239.518,81.498 242.5,81C 240.618,80.8019 238.952,80.3019 237.5,79.5 Z"/></g>
<g><path style="opacity:1" fill="#ce6969" d="M 36.5,125.5 C 36.5,123.167 36.5,120.833 36.5,118.5C 25.1667,118.5 13.8333,118.5 2.5,118.5C 2.5,120.833 2.5,123.167 2.5,125.5C 1.52693,123.052 1.1936,120.385 1.5,117.5C 13.5,117.5 25.5,117.5 37.5,117.5C 37.8064,120.385 37.4731,123.052 36.5,125.5 Z"/></g>
<g><path style="opacity:1" fill="#c55452" d="M 126.5,117.5 C 127.388,120.054 127.721,122.721 127.5,125.5C 121.5,125.167 115.5,124.833 109.5,124.5C 115.005,123.501 120.672,123.501 126.5,124.5C 127.035,121.762 126.035,119.928 123.5,119C 114.894,117.772 106.561,118.605 98.5,121.5C 100.89,118.972 103.89,117.472 107.5,117C 113.85,116.476 120.184,116.642 126.5,117.5 Z"/></g>
<g><path style="opacity:1" fill="#cf6e6d" d="M 472.5,118.5 C 460.833,118.5 449.167,118.5 437.5,118.5C 437.5,120.833 437.5,123.167 437.5,125.5C 436.527,123.052 436.194,120.385 436.5,117.5C 448.678,117.172 460.678,117.505 472.5,118.5 Z"/></g>
<g><path style="opacity:1" fill="#c7403f" d="M 36.5,125.5 C 32.5,125.5 28.5,125.5 24.5,125.5C 24.1667,125.5 23.8333,125.5 23.5,125.5C 27.2984,124.517 31.2984,124.183 35.5,124.5C 35.7135,122.856 35.3802,121.356 34.5,120C 24.8333,119.333 15.1667,119.333 5.5,120C 3.89339,121.049 3.22672,122.549 3.5,124.5C 7.70159,124.183 11.7016,124.517 15.5,125.5C 15.1667,125.5 14.8333,125.5 14.5,125.5C 10.5,125.5 6.5,125.5 2.5,125.5C 2.5,123.167 2.5,120.833 2.5,118.5C 13.8333,118.5 25.1667,118.5 36.5,118.5C 36.5,120.833 36.5,123.167 36.5,125.5 Z"/></g>
<g><path style="opacity:1" fill="#cf3f3e" d="M 109.5,124.5 C 107.77,125.026 106.436,126.026 105.5,127.5C 104.778,127.918 104.278,128.584 104,129.5C 103.333,132.833 103.333,136.167 104,139.5C 105.076,142.079 106.909,143.746 109.5,144.5C 113.646,145.647 117.98,145.814 122.5,145C 123.416,144.722 124.082,144.222 124.5,143.5C 124.833,143.5 125.167,143.5 125.5,143.5C 127.369,145.635 128.036,148.302 127.5,151.5C 119.861,152.525 112.195,152.691 104.5,152C 100.252,150.587 97.5852,147.754 96.5,143.5C 96.1455,136.031 96.8122,128.698 98.5,121.5C 106.561,118.605 114.894,117.772 123.5,119C 126.035,119.928 127.035,121.762 126.5,124.5C 120.672,123.501 115.005,123.501 109.5,124.5 Z"/></g>
<g><path style="opacity:1" fill="#cf4240" d="M 316.5,141.5 C 313.038,140.518 309.371,140.185 305.5,140.5C 305.5,144.167 305.5,147.833 305.5,151.5C 302.833,151.5 300.167,151.5 297.5,151.5C 297.189,140.086 297.523,128.752 298.5,117.5C 305.754,116.37 313.087,116.204 320.5,117C 331.124,119.755 334.124,126.255 329.5,136.5C 328.019,137.48 326.685,138.647 325.5,140C 328.184,143.536 330.184,147.369 331.5,151.5C 328.482,151.665 325.482,151.498 322.5,151C 320.364,147.89 318.364,144.723 316.5,141.5 Z"/></g>
<g><path style="opacity:1" fill="#c44241" d="M 472.5,118.5 C 472.5,120.833 472.5,123.167 472.5,125.5C 468.167,125.5 463.833,125.5 459.5,125.5C 462.962,124.518 466.629,124.185 470.5,124.5C 470.5,122.833 470.5,121.167 470.5,119.5C 459.833,119.5 449.167,119.5 438.5,119.5C 438.5,121.167 438.5,122.833 438.5,124.5C 442.371,124.185 446.038,124.518 449.5,125.5C 445.5,125.5 441.5,125.5 437.5,125.5C 437.5,123.167 437.5,120.833 437.5,118.5C 449.167,118.5 460.833,118.5 472.5,118.5 Z"/></g>
<g><path style="opacity:1" fill="#d33a3a" d="M 23.5,125.5 C 22.5073,133.65 22.1739,141.983 22.5,150.5C 20.5,150.5 18.5,150.5 16.5,150.5C 16.8261,141.983 16.4927,133.65 15.5,125.5C 11.7016,124.517 7.70159,124.183 3.5,124.5C 3.22672,122.549 3.89339,121.049 5.5,120C 15.1667,119.333 24.8333,119.333 34.5,120C 35.3802,121.356 35.7135,122.856 35.5,124.5C 31.2984,124.183 27.2984,124.517 23.5,125.5 Z"/></g>
<g><path style="opacity:1" fill="#cf3d3d" d="M 149.5,130.5 C 155.5,130.5 161.5,130.5 167.5,130.5C 167.5,126.5 167.5,122.5 167.5,118.5C 170.167,118.5 172.833,118.5 175.5,118.5C 175.5,129.5 175.5,140.5 175.5,151.5C 172.833,151.5 170.167,151.5 167.5,151.5C 167.5,147.167 167.5,142.833 167.5,138.5C 161.5,138.5 155.5,138.5 149.5,138.5C 148.517,142.298 148.183,146.298 148.5,150.5C 146.167,150.5 143.833,150.5 141.5,150.5C 141.5,139.833 141.5,129.167 141.5,118.5C 143.833,118.5 146.167,118.5 148.5,118.5C 148.183,122.702 148.517,126.702 149.5,130.5 Z"/></g>
<g><path style="opacity:1" fill="#d04241" d="M 274.5,129.5 C 277.008,133.182 279.008,137.182 280.5,141.5C 280.104,144.482 280.771,147.149 282.5,149.5C 280.604,150.466 278.604,150.799 276.5,150.5C 276.741,147.966 275.741,146.3 273.5,145.5C 267.5,145.5 261.5,145.5 255.5,145.5C 255.617,147.484 254.95,149.15 253.5,150.5C 250.914,151.48 248.247,151.813 245.5,151.5C 245.794,146.588 247.461,142.255 250.5,138.5C 252.074,138.063 253.241,137.063 254,135.5C 255.524,130.118 257.858,125.118 261,120.5C 263.381,119.565 265.881,119.232 268.5,119.5C 269.793,122.457 271.126,125.457 272.5,128.5C 272.957,129.298 273.624,129.631 274.5,129.5 Z"/></g>
<g><path style="opacity:1" fill="#c44645" d="M 424.5,125.5 C 416.833,125.5 409.167,125.5 401.5,125.5C 408.648,124.508 415.981,124.175 423.5,124.5C 423.5,122.833 423.5,121.167 423.5,119.5C 413.833,119.5 404.167,119.5 394.5,119.5C 394.5,129.833 394.5,140.167 394.5,150.5C 404.5,150.5 414.5,150.5 424.5,150.5C 424.5,148.5 424.5,146.5 424.5,144.5C 416.648,144.825 408.982,144.492 401.5,143.5C 401.833,143.5 402.167,143.5 402.5,143.5C 410.167,143.5 417.833,143.5 425.5,143.5C 425.5,146.167 425.5,148.833 425.5,151.5C 414.833,151.5 404.167,151.5 393.5,151.5C 393.5,140.5 393.5,129.5 393.5,118.5C 403.833,118.5 414.167,118.5 424.5,118.5C 424.5,120.833 424.5,123.167 424.5,125.5 Z"/></g>
<g><path style="opacity:1" fill="#d33a3a" d="M 401.5,125.5 C 400.189,127.56 400.189,129.726 401.5,132C 407.157,132.499 412.824,132.666 418.5,132.5C 418.5,133.833 418.5,135.167 418.5,136.5C 412.402,135.883 406.735,136.55 401.5,138.5C 401.5,140.167 401.5,141.833 401.5,143.5C 408.982,144.492 416.648,144.825 424.5,144.5C 424.5,146.5 424.5,148.5 424.5,150.5C 414.5,150.5 404.5,150.5 394.5,150.5C 394.5,140.167 394.5,129.833 394.5,119.5C 404.167,119.5 413.833,119.5 423.5,119.5C 423.5,121.167 423.5,122.833 423.5,124.5C 415.981,124.175 408.648,124.508 401.5,125.5 Z"/></g>
<g><path style="opacity:1" fill="#d23a3a" d="M 459.5,125.5 C 458.507,133.65 458.174,141.983 458.5,150.5C 456.167,150.5 453.833,150.5 451.5,150.5C 451.826,141.983 451.493,133.65 450.5,125.5C 450.167,125.5 449.833,125.5 449.5,125.5C 446.038,124.518 442.371,124.185 438.5,124.5C 438.5,122.833 438.5,121.167 438.5,119.5C 449.167,119.5 459.833,119.5 470.5,119.5C 470.5,121.167 470.5,122.833 470.5,124.5C 466.629,124.185 462.962,124.518 459.5,125.5 Z"/></g>
<g><path style="opacity:1" fill="#bc5554" d="M 199.5,118.5 C 196.833,118.5 194.167,118.5 191.5,118.5C 191.5,129.167 191.5,139.833 191.5,150.5C 193.833,150.5 196.167,150.5 198.5,150.5C 198.5,144.167 198.5,137.833 198.5,131.5C 200.179,131.285 201.179,131.952 201.5,133.5C 200.883,133.389 200.383,133.056 200,132.5C 199.5,138.825 199.334,145.158 199.5,151.5C 196.5,151.5 193.5,151.5 190.5,151.5C 190.5,140.167 190.5,128.833 190.5,117.5C 193.713,117.19 196.713,117.523 199.5,118.5 Z"/></g>
<g><path style="opacity:1" fill="#c56e6d" d="M 345.5,118.5 C 348.287,117.523 351.287,117.19 354.5,117.5C 354.5,121.833 354.5,126.167 354.5,130.5C 353.517,126.702 353.183,122.702 353.5,118.5C 351.167,118.5 348.833,118.5 346.5,118.5C 346.167,118.5 345.833,118.5 345.5,118.5 Z"/></g>
<g><path style="opacity:1" fill="#ca7170" d="M 425.5,125.5 C 425.167,125.5 424.833,125.5 424.5,125.5C 424.5,123.167 424.5,120.833 424.5,118.5C 414.167,118.5 403.833,118.5 393.5,118.5C 393.5,129.5 393.5,140.5 393.5,151.5C 392.505,140.346 392.172,129.012 392.5,117.5C 403.5,117.5 414.5,117.5 425.5,117.5C 425.5,120.167 425.5,122.833 425.5,125.5 Z"/></g>
<g><path style="opacity:1" fill="#d03e3d" d="M 199.5,118.5 C 203.829,123.508 207.829,128.841 211.5,134.5C 215.509,129.137 219.509,123.804 223.5,118.5C 226.167,118.5 228.833,118.5 231.5,118.5C 231.5,129.167 231.5,139.833 231.5,150.5C 229.167,150.5 226.833,150.5 224.5,150.5C 224.666,144.158 224.5,137.825 224,131.5C 222.187,130.391 221.354,131.058 221.5,133.5C 219.163,136.681 216.996,140.014 215,143.5C 212.667,144.833 210.333,144.833 208,143.5C 206.004,140.014 203.837,136.681 201.5,133.5C 201.179,131.952 200.179,131.285 198.5,131.5C 198.5,137.833 198.5,144.167 198.5,150.5C 196.167,150.5 193.833,150.5 191.5,150.5C 191.5,139.833 191.5,129.167 191.5,118.5C 194.167,118.5 196.833,118.5 199.5,118.5 Z"/></g>
<g><path style="opacity:1" fill="#bf6364" d="M 167.5,118.5 C 170.287,117.523 173.287,117.19 176.5,117.5C 176.828,129.012 176.495,140.346 175.5,151.5C 175.5,140.5 175.5,129.5 175.5,118.5C 172.833,118.5 170.167,118.5 167.5,118.5 Z"/></g>
<g><path style="opacity:1" fill="#b95f5e" d="M 298.5,117.5 C 297.523,128.752 297.189,140.086 297.5,151.5C 296.834,146.01 296.501,140.343 296.5,134.5C 296.504,128.458 297.171,122.792 298.5,117.5 Z"/></g>
<g><path style="opacity:1" fill="#fad7d6" d="M 126.5,117.5 C 128.388,119.988 129.055,122.988 128.5,126.5C 120.778,126.233 113.111,126.566 105.5,127.5C 106.436,126.026 107.77,125.026 109.5,124.5C 115.5,124.833 121.5,125.167 127.5,125.5C 127.721,122.721 127.388,120.054 126.5,117.5 Z"/></g>
<g><path style="opacity:1" fill="#d0403f" d="M 354.5,138.5 C 353.883,138.611 353.383,138.944 353,139.5C 352.501,143.152 352.335,146.818 352.5,150.5C 350.5,150.5 348.5,150.5 346.5,150.5C 346.5,139.833 346.5,129.167 346.5,118.5C 348.833,118.5 351.167,118.5 353.5,118.5C 353.183,122.702 353.517,126.702 354.5,130.5C 356.527,130.662 358.527,130.495 360.5,130C 363.647,126.019 366.98,122.186 370.5,118.5C 373.768,117.513 377.102,117.18 380.5,117.5C 380.649,118.552 380.483,119.552 380,120.5C 375.916,125.025 372.083,129.691 368.5,134.5C 372.082,140.091 376.082,145.424 380.5,150.5C 377.216,151.657 373.882,151.824 370.5,151C 367.379,147.257 364.379,143.424 361.5,139.5C 359.257,138.526 356.924,138.192 354.5,138.5 Z"/></g>
<g><path style="opacity:1" fill="#fecdcd" d="M 401.5,125.5 C 409.167,125.5 416.833,125.5 424.5,125.5C 424.833,125.5 425.167,125.5 425.5,125.5C 418.018,126.492 410.352,126.825 402.5,126.5C 402.5,127.833 402.5,129.167 402.5,130.5C 401.549,129.081 401.216,127.415 401.5,125.5 Z"/></g>
<g><path style="opacity:1" fill="#fec9c9" d="M 305.5,124.5 C 310.032,124.182 314.366,124.515 318.5,125.5C 314.5,125.5 310.5,125.5 306.5,125.5C 306.298,127.95 306.631,130.283 307.5,132.5C 305.631,130.365 304.964,127.698 305.5,124.5 Z"/></g>
<g><path style="opacity:1" fill="#fff9f9" d="M 318.5,125.5 C 319.5,125.5 320.5,125.5 321.5,125.5C 321.702,127.95 321.369,130.283 320.5,132.5C 316.167,132.5 311.833,132.5 307.5,132.5C 306.631,130.283 306.298,127.95 306.5,125.5C 310.5,125.5 314.5,125.5 318.5,125.5 Z"/></g>
<g><path style="opacity:1" fill="#ca5351" d="M 305.5,124.5 C 311.072,123.13 316.739,123.297 322.5,125C 323.591,127.064 323.758,129.231 323,131.5C 322.329,132.252 321.496,132.586 320.5,132.5C 321.369,130.283 321.702,127.95 321.5,125.5C 320.5,125.5 319.5,125.5 318.5,125.5C 314.366,124.515 310.032,124.182 305.5,124.5 Z"/></g>
<g><path style="opacity:1" fill="#bc4d4c" d="M 450.5,125.5 C 451.493,133.65 451.826,141.983 451.5,150.5C 453.833,150.5 456.167,150.5 458.5,150.5C 458.174,141.983 458.507,133.65 459.5,125.5C 459.5,134.167 459.5,142.833 459.5,151.5C 456.5,151.5 453.5,151.5 450.5,151.5C 450.5,142.833 450.5,134.167 450.5,125.5 Z"/></g>
<g><path style="opacity:1" fill="#bd504f" d="M 149.5,130.5 C 148.517,126.702 148.183,122.702 148.5,118.5C 146.167,118.5 143.833,118.5 141.5,118.5C 141.5,129.167 141.5,139.833 141.5,150.5C 143.833,150.5 146.167,150.5 148.5,150.5C 148.183,146.298 148.517,142.298 149.5,138.5C 149.5,138.833 149.5,139.167 149.5,139.5C 149.5,143.5 149.5,147.5 149.5,151.5C 146.5,151.5 143.5,151.5 140.5,151.5C 140.5,140.167 140.5,128.833 140.5,117.5C 143.5,117.5 146.5,117.5 149.5,117.5C 149.5,121.833 149.5,126.167 149.5,130.5 Z"/></g>
<g><path style="opacity:1" fill="#ffc1c0" d="M 437.5,125.5 C 441.5,125.5 445.5,125.5 449.5,125.5C 449.833,125.5 450.167,125.5 450.5,125.5C 450.5,134.167 450.5,142.833 450.5,151.5C 449.507,143.35 449.174,135.017 449.5,126.5C 445.298,126.817 441.298,126.483 437.5,125.5 Z"/></g>
<g><path style="opacity:1" fill="#cb615f" d="M 14.5,125.5 C 14.8333,125.5 15.1667,125.5 15.5,125.5C 16.4927,133.65 16.8261,141.983 16.5,150.5C 18.5,150.5 20.5,150.5 22.5,150.5C 22.1739,141.983 22.5073,133.65 23.5,125.5C 23.8333,125.5 24.1667,125.5 24.5,125.5C 24.5,134.167 24.5,142.833 24.5,151.5C 21.1667,151.5 17.8333,151.5 14.5,151.5C 14.5,142.833 14.5,134.167 14.5,125.5 Z"/></g>
<g><path style="opacity:1" fill="#cb5855" d="M 274.5,129.5 C 273.624,129.631 272.957,129.298 272.5,128.5C 271.126,125.457 269.793,122.457 268.5,119.5C 265.881,119.232 263.381,119.565 261,120.5C 257.858,125.118 255.524,130.118 254,135.5C 253.241,137.063 252.074,138.063 250.5,138.5C 252.939,131.618 255.939,124.951 259.5,118.5C 262.833,117.167 266.167,117.167 269.5,118.5C 271.453,122.069 273.119,125.736 274.5,129.5 Z"/></g>
<g><path style="opacity:1" fill="#c4524f" d="M 98.5,121.5 C 96.8122,128.698 96.1455,136.031 96.5,143.5C 95.7321,142.737 95.2321,141.737 95,140.5C 94.3333,136.167 94.3333,131.833 95,127.5C 95.5995,125.09 96.7662,123.09 98.5,121.5 Z"/></g>
<g><path style="opacity:1" fill="#ca7675" d="M 58.5,131.5 C 58.5,131.167 58.5,130.833 58.5,130.5C 64.8333,130.5 71.1667,130.5 77.5,130.5C 77.5,133.167 77.5,135.833 77.5,138.5C 77.1667,138.5 76.8333,138.5 76.5,138.5C 76.5,136.167 76.5,133.833 76.5,131.5C 70.5,131.5 64.5,131.5 58.5,131.5 Z"/></g>
<g><path style="opacity:1" fill="#fff1f0" d="M 263.5,126.5 C 264.376,126.369 265.043,126.702 265.5,127.5C 266.833,130.5 268.167,133.5 269.5,136.5C 266.216,137.657 262.882,137.824 259.5,137C 261.33,133.676 262.663,130.176 263.5,126.5 Z"/></g>
<g><path style="opacity:1" fill="#c27171" d="M 402.5,130.5 C 408.5,130.5 414.5,130.5 420.5,130.5C 420.5,133.167 420.5,135.833 420.5,138.5C 420.167,138.5 419.833,138.5 419.5,138.5C 419.5,136.167 419.5,133.833 419.5,131.5C 413.642,131.822 407.975,131.489 402.5,130.5 Z"/></g>
<g><path style="opacity:1" fill="#d13b3a" d="M 81.5,125.5 C 73.8333,125.5 66.1667,125.5 58.5,125.5C 58.5,127.167 58.5,128.833 58.5,130.5C 58.5,130.833 58.5,131.167 58.5,131.5C 63.9753,132.489 69.642,132.822 75.5,132.5C 75.5,133.833 75.5,135.167 75.5,136.5C 69.8236,136.334 64.1569,136.501 58.5,137C 55.9588,139.393 55.9588,141.56 58.5,143.5C 65.6476,144.492 72.9809,144.825 80.5,144.5C 80.5,146.5 80.5,148.5 80.5,150.5C 70.5,150.5 60.5,150.5 50.5,150.5C 50.5,139.833 50.5,129.167 50.5,118.5C 60.8333,118.5 71.1667,118.5 81.5,118.5C 81.5,120.833 81.5,123.167 81.5,125.5 Z"/></g>
<g><path style="opacity:1" fill="#c96160" d="M 81.5,125.5 C 81.5,123.167 81.5,120.833 81.5,118.5C 71.1667,118.5 60.8333,118.5 50.5,118.5C 50.5,129.167 50.5,139.833 50.5,150.5C 50.5,150.833 50.5,151.167 50.5,151.5C 49.5052,140.346 49.1719,129.012 49.5,117.5C 60.5,117.5 71.5,117.5 82.5,117.5C 82.8064,120.385 82.4731,123.052 81.5,125.5 Z"/></g>
<g><path style="opacity:1" fill="#bf504f" d="M 223.5,118.5 C 226.287,117.523 229.287,117.19 232.5,117.5C 232.5,128.833 232.5,140.167 232.5,151.5C 229.5,151.5 226.5,151.5 223.5,151.5C 223.666,145.158 223.5,138.825 223,132.5C 222.617,133.056 222.117,133.389 221.5,133.5C 221.354,131.058 222.187,130.391 224,131.5C 224.5,137.825 224.666,144.158 224.5,150.5C 226.833,150.5 229.167,150.5 231.5,150.5C 231.5,139.833 231.5,129.167 231.5,118.5C 228.833,118.5 226.167,118.5 223.5,118.5 Z"/></g>
<g><path style="opacity:1" fill="#c24242" d="M 58.5,131.5 C 64.5,131.5 70.5,131.5 76.5,131.5C 76.5,133.833 76.5,136.167 76.5,138.5C 70.5,138.5 64.5,138.5 58.5,138.5C 58.5,140.167 58.5,141.833 58.5,143.5C 55.9588,141.56 55.9588,139.393 58.5,137C 64.1569,136.501 69.8236,136.334 75.5,136.5C 75.5,135.167 75.5,133.833 75.5,132.5C 69.642,132.822 63.9753,132.489 58.5,131.5 Z"/></g>
<g><path style="opacity:1" fill="#c24241" d="M 401.5,125.5 C 401.216,127.415 401.549,129.081 402.5,130.5C 407.975,131.489 413.642,131.822 419.5,131.5C 419.5,133.833 419.5,136.167 419.5,138.5C 413.5,138.5 407.5,138.5 401.5,138.5C 406.735,136.55 412.402,135.883 418.5,136.5C 418.5,135.167 418.5,133.833 418.5,132.5C 412.824,132.666 407.157,132.499 401.5,132C 400.189,129.726 400.189,127.56 401.5,125.5 Z"/></g>
<g><path style="opacity:1" fill="#ffcbcb" d="M 76.5,138.5 C 76.8333,138.5 77.1667,138.5 77.5,138.5C 71.69,139.49 65.69,139.823 59.5,139.5C 59.5,140.833 59.5,142.167 59.5,143.5C 59.1667,143.5 58.8333,143.5 58.5,143.5C 58.5,141.833 58.5,140.167 58.5,138.5C 64.5,138.5 70.5,138.5 76.5,138.5 Z"/></g>
<g><path style="opacity:1" fill="#ffcbcb" d="M 149.5,139.5 C 149.5,139.167 149.5,138.833 149.5,138.5C 155.5,138.5 161.5,138.5 167.5,138.5C 167.5,142.833 167.5,147.167 167.5,151.5C 166.517,147.702 166.183,143.702 166.5,139.5C 160.833,139.5 155.167,139.5 149.5,139.5 Z"/></g>
<g><path style="opacity:1" fill="#fec8c9" d="M 401.5,138.5 C 407.5,138.5 413.5,138.5 419.5,138.5C 419.833,138.5 420.167,138.5 420.5,138.5C 414.69,139.49 408.69,139.823 402.5,139.5C 402.5,140.833 402.5,142.167 402.5,143.5C 402.167,143.5 401.833,143.5 401.5,143.5C 401.5,141.833 401.5,140.167 401.5,138.5 Z"/></g>
<g><path style="opacity:1" fill="#d06f6e" d="M 58.5,143.5 C 58.8333,143.5 59.1667,143.5 59.5,143.5C 67.1667,143.5 74.8333,143.5 82.5,143.5C 82.8064,146.385 82.4731,149.052 81.5,151.5C 81.8016,148.941 81.4682,146.607 80.5,144.5C 72.9809,144.825 65.6476,144.492 58.5,143.5 Z"/></g>
<g><path style="opacity:1" fill="#ffd1d1" d="M 316.5,141.5 C 313.167,141.5 309.833,141.5 306.5,141.5C 306.813,145.042 306.479,148.375 305.5,151.5C 305.5,147.833 305.5,144.167 305.5,140.5C 309.371,140.185 313.038,140.518 316.5,141.5 Z"/></g>
<g><path style="opacity:1" fill="#c76563" d="M 124.5,143.5 C 124.082,144.222 123.416,144.722 122.5,145C 117.98,145.814 113.646,145.647 109.5,144.5C 114.537,144.587 119.537,144.254 124.5,143.5 Z"/></g>
<g><path style="opacity:1" fill="#ebb5b5" d="M 125.5,143.5 C 126.209,142.596 127.209,142.263 128.5,142.5C 128.81,145.713 128.477,148.713 127.5,151.5C 128.036,148.302 127.369,145.635 125.5,143.5 Z"/></g>
<g><path style="opacity:1" fill="#bc4444" d="M 80.5,144.5 C 81.4682,146.607 81.8016,148.941 81.5,151.5C 71.1667,151.5 60.8333,151.5 50.5,151.5C 50.5,151.167 50.5,150.833 50.5,150.5C 60.5,150.5 70.5,150.5 80.5,150.5C 80.5,148.5 80.5,146.5 80.5,144.5 Z"/></g>
<g><path style="opacity:1" fill="#c14d4b" d="M 280.5,141.5 C 282.352,144.551 283.686,147.884 284.5,151.5C 281.5,151.5 278.5,151.5 275.5,151.5C 275.396,149.297 274.73,147.297 273.5,145.5C 275.741,146.3 276.741,147.966 276.5,150.5C 278.604,150.799 280.604,150.466 282.5,149.5C 280.771,147.149 280.104,144.482 280.5,141.5 Z"/></g>
<g><path style="opacity:1" fill="#be4c4c" d="M 345.5,118.5 C 345.833,118.5 346.167,118.5 346.5,118.5C 346.5,129.167 346.5,139.833 346.5,150.5C 348.5,150.5 350.5,150.5 352.5,150.5C 352.335,146.818 352.501,143.152 353,139.5C 353.383,138.944 353.883,138.611 354.5,138.5C 354.5,142.833 354.5,147.167 354.5,151.5C 351.5,151.5 348.5,151.5 345.5,151.5C 345.5,140.5 345.5,129.5 345.5,118.5 Z"/></g>
</svg>
